<?xml version="1.0" encoding="utf-8"?>
<!-- Generator: Adobe Illustrator 23.1.0, SVG Export Plug-In . SVG Version: 6.00 Build 0)  -->
<svg version="1.1" id="Layer_1" xmlns="http://www.w3.org/2000/svg" xmlns:xlink="http://www.w3.org/1999/xlink" x="0px" y="0px"
	 viewBox="0 0 101.14 92.76" style="enable-background:new 0 0 101.14 92.76;" xml:space="preserve">
<style type="text/css">
	.st0{fill:#6805D2;}
	.st1{fill:#747675;}
</style>
<g>
	<polygon class="st0" points="76.9,25.21 72.05,28.3 50.54,15.93 27.94,28.96 27.85,55.47 50.64,68.55 70.91,56.8 75.76,59.08 
		50.78,73.61 23.18,57.85 23.18,26.06 50.5,10.17 	"/>
	<polygon class="st0" points="77.9,29.2 73.43,31.77 73.43,37.1 77.9,34.39 	"/>
	<polygon class="st0" points="77.9,38.91 73.43,41.34 73.43,53.75 77.9,55.99 	"/>
	<polygon class="st0" points="67.72,32.15 67.72,37.67 50.54,28.16 38.89,34.86 38.89,37.67 54.54,46.57 50.04,49.66 33.65,40.34 
		33.65,31.91 50.5,22.25 	"/>
	<polygon class="st1" points="48.02,31.44 45.21,36.39 62.34,46.43 62.34,48.66 50.31,55.23 33.65,45.57 33.65,51.57 50.04,61.32 
		67.39,51.75 67.39,42.76 	"/>
	<path class="st0" d="M11.39,78.12c0.05,0,0.09,0.02,0.12,0.06c0.02,0.04,0.03,0.08,0.03,0.13c0,0.03,0,0.08,0.01,0.15
		c0.01,0.07,0.01,0.14,0,0.2c0,0.07-0.02,0.13-0.04,0.18c-0.02,0.05-0.06,0.08-0.12,0.08H9.44c-0.14,0-0.24,0.02-0.32,0.06
		c-0.08,0.04-0.13,0.1-0.17,0.17c-0.04,0.07-0.06,0.16-0.06,0.25c-0.01,0.1-0.01,0.2-0.01,0.32v1.26c0,0.11,0,0.22,0.01,0.32
		c0.01,0.1,0.03,0.18,0.06,0.25c0.04,0.07,0.09,0.13,0.17,0.17c0.08,0.04,0.18,0.06,0.32,0.06h1.95c0.05,0,0.09,0.02,0.12,0.06
		c0.02,0.04,0.03,0.08,0.03,0.13c0,0.04,0,0.09,0.01,0.16c0.01,0.07,0.01,0.14,0,0.21c0,0.07-0.02,0.13-0.04,0.18
		c-0.02,0.05-0.06,0.07-0.12,0.07H9.41c-0.28,0-0.5-0.04-0.68-0.13c-0.17-0.08-0.31-0.2-0.41-0.35c-0.1-0.15-0.16-0.33-0.2-0.54
		c-0.04-0.21-0.05-0.44-0.05-0.69v-1.07c0-0.25,0.02-0.47,0.05-0.68c0.03-0.21,0.1-0.39,0.19-0.54c0.1-0.15,0.23-0.27,0.41-0.35
		c0.18-0.08,0.4-0.13,0.69-0.13H11.39z"/>
	<path class="st0" d="M14.99,78.06c0.1,0,0.18,0.01,0.25,0.04c0.07,0.03,0.13,0.07,0.18,0.12c0.05,0.05,0.1,0.11,0.14,0.18
		c0.04,0.07,0.07,0.14,0.11,0.23l1.52,3.76c0.01,0.04,0.02,0.07,0.02,0.09c0,0.04-0.01,0.07-0.04,0.09
		c-0.02,0.02-0.05,0.03-0.09,0.03h-0.58c-0.08,0-0.13-0.04-0.16-0.12L15,79.1h-0.02l-0.71,1.77h0.67c0.07,0,0.13,0.04,0.16,0.11
		c0.01,0.03,0.03,0.06,0.05,0.12c0.02,0.05,0.05,0.1,0.07,0.16c0.02,0.05,0.04,0.11,0.06,0.15c0.02,0.05,0.03,0.09,0.03,0.11
		c0,0.05-0.02,0.09-0.05,0.13c-0.03,0.03-0.07,0.05-0.13,0.05h-1.19l-0.31,0.78c-0.03,0.08-0.08,0.11-0.15,0.11h-0.6
		c-0.08,0-0.13-0.04-0.13-0.12c0-0.04,0.01-0.07,0.02-0.09l1.51-3.76c0.06-0.16,0.15-0.3,0.25-0.4
		C14.66,78.11,14.8,78.06,14.99,78.06"/>
	<path class="st0" d="M21.21,78.12c0.21,0,0.38,0.03,0.51,0.1c0.13,0.07,0.24,0.16,0.32,0.28c0.08,0.12,0.13,0.26,0.16,0.41
		s0.05,0.33,0.05,0.51s-0.01,0.35-0.05,0.51c-0.03,0.16-0.08,0.3-0.16,0.42c-0.08,0.12-0.18,0.21-0.32,0.29
		c-0.13,0.07-0.3,0.11-0.51,0.11h-1.85v1.66c0,0.05-0.01,0.1-0.04,0.13c-0.02,0.04-0.06,0.06-0.12,0.06h-0.5
		c-0.06,0-0.09-0.02-0.12-0.06c-0.02-0.04-0.04-0.08-0.04-0.13v-2.28c0-0.05,0.01-0.09,0.04-0.13c0.02-0.04,0.06-0.05,0.12-0.05
		h2.36c0.08,0,0.15-0.01,0.2-0.04c0.05-0.03,0.09-0.06,0.11-0.11c0.02-0.05,0.04-0.1,0.05-0.16c0.01-0.06,0.01-0.13,0.01-0.2
		s0-0.13-0.01-0.19c-0.01-0.06-0.03-0.12-0.05-0.16c-0.03-0.05-0.06-0.08-0.11-0.11c-0.05-0.03-0.12-0.04-0.2-0.04H18.7
		c-0.06,0-0.09-0.02-0.12-0.06c-0.02-0.04-0.04-0.08-0.04-0.13c0-0.04,0-0.09-0.01-0.16c-0.01-0.07-0.01-0.14,0-0.21
		c0-0.07,0.02-0.13,0.04-0.18c0.02-0.05,0.06-0.07,0.12-0.07H21.21z"/>
	<path class="st0" d="M24.48,78.12c0.02,0,0.05,0.01,0.09,0.03c0.04,0.02,0.06,0.07,0.06,0.16v4.09c0,0.08-0.02,0.14-0.06,0.16
		c-0.04,0.02-0.07,0.03-0.09,0.03h-0.5c-0.02,0-0.05-0.01-0.09-0.03c-0.04-0.02-0.06-0.07-0.06-0.16v-4.09
		c0-0.08,0.02-0.14,0.06-0.16c0.04-0.02,0.07-0.03,0.09-0.03H24.48z"/>
	<path class="st0" d="M29.92,78.12c0.02,0,0.06,0.01,0.1,0.03c0.04,0.02,0.06,0.07,0.06,0.15v0.42c0,0.04-0.01,0.08-0.02,0.11
		c-0.01,0.03-0.03,0.05-0.04,0.06c-0.02,0.01-0.03,0.02-0.05,0.02c-0.02,0-0.03,0.01-0.04,0.01h-1.39v3.48
		c0,0.08-0.02,0.14-0.06,0.15c-0.04,0.02-0.07,0.03-0.1,0.03h-0.5c-0.02,0-0.05-0.01-0.09-0.03c-0.04-0.02-0.06-0.07-0.06-0.15
		v-3.48h-1.39c-0.01,0-0.03,0-0.04-0.01c-0.02,0-0.04-0.01-0.05-0.02c-0.02-0.01-0.03-0.03-0.04-0.06s-0.02-0.06-0.02-0.11V78.3
		c0-0.08,0.02-0.13,0.06-0.15c0.04-0.02,0.07-0.03,0.1-0.03H29.92z"/>
	<path class="st0" d="M32.75,78.06c0.1,0,0.18,0.01,0.25,0.04c0.07,0.03,0.13,0.07,0.18,0.12c0.05,0.05,0.1,0.11,0.14,0.18
		c0.04,0.07,0.07,0.14,0.11,0.23l1.52,3.76c0.01,0.04,0.02,0.07,0.02,0.09c0,0.04-0.01,0.07-0.04,0.09
		c-0.02,0.02-0.05,0.03-0.09,0.03h-0.58c-0.08,0-0.13-0.04-0.16-0.12l-1.35-3.37h-0.02l-0.71,1.77h0.67c0.07,0,0.13,0.04,0.16,0.11
		c0.01,0.03,0.03,0.06,0.05,0.12c0.02,0.05,0.05,0.1,0.07,0.16c0.02,0.05,0.04,0.11,0.06,0.15c0.02,0.05,0.03,0.09,0.03,0.11
		c0,0.05-0.02,0.09-0.05,0.13c-0.03,0.03-0.07,0.05-0.13,0.05h-1.19l-0.31,0.78c-0.03,0.08-0.08,0.11-0.15,0.11h-0.6
		c-0.08,0-0.13-0.04-0.13-0.12c0-0.04,0.01-0.07,0.02-0.09l1.51-3.76c0.06-0.16,0.15-0.3,0.25-0.4
		C32.42,78.11,32.56,78.06,32.75,78.06"/>
	<path class="st0" d="M36.9,78.12c0.05,0,0.09,0.02,0.12,0.06c0.02,0.04,0.03,0.08,0.03,0.13v2.67c0,0.12,0.01,0.22,0.02,0.32
		c0.02,0.1,0.05,0.18,0.09,0.25c0.04,0.07,0.1,0.13,0.17,0.17c0.07,0.04,0.16,0.06,0.27,0.06h1.76c0.05,0,0.09,0.02,0.12,0.06
		c0.02,0.04,0.04,0.08,0.04,0.13v0.43c0,0.05-0.01,0.1-0.04,0.13c-0.02,0.04-0.06,0.06-0.12,0.06h-1.79c-0.28,0-0.51-0.04-0.69-0.13
		c-0.18-0.08-0.31-0.2-0.41-0.36s-0.16-0.33-0.19-0.54c-0.04-0.21-0.05-0.43-0.05-0.68v-2.58c0-0.05,0.01-0.09,0.04-0.13
		s0.06-0.06,0.12-0.06H36.9z"/>
	<path class="st0" d="M46.11,79.75c0,0.05,0.01,0.09,0.05,0.12s0.07,0.04,0.11,0.04h1.63c0.17,0,0.3,0.03,0.41,0.1
		c0.11,0.06,0.2,0.15,0.26,0.25c0.07,0.1,0.11,0.22,0.14,0.36c0.03,0.14,0.04,0.28,0.04,0.42v0.48c0,0.14-0.01,0.28-0.05,0.41
		c-0.03,0.13-0.08,0.24-0.15,0.34c-0.07,0.1-0.16,0.18-0.27,0.23c-0.11,0.06-0.24,0.09-0.4,0.09h-2.45c-0.06,0-0.1-0.02-0.12-0.06
		c-0.02-0.04-0.04-0.08-0.04-0.13v-0.43c0-0.05,0.01-0.09,0.04-0.13c0.02-0.04,0.06-0.05,0.12-0.05h2.32c0.09,0,0.14-0.03,0.16-0.09
		c0.02-0.06,0.03-0.13,0.03-0.2v-0.47c0-0.07-0.01-0.14-0.03-0.2c-0.02-0.06-0.07-0.1-0.16-0.1h-1.63c-0.3,0-0.52-0.08-0.65-0.25
		c-0.13-0.17-0.2-0.41-0.2-0.71v-0.7c0-0.11,0.01-0.22,0.04-0.33c0.03-0.11,0.07-0.21,0.13-0.3c0.06-0.09,0.15-0.16,0.26-0.22
		c0.11-0.06,0.25-0.09,0.43-0.09h2.34c0.05,0,0.09,0.02,0.12,0.05c0.02,0.04,0.04,0.08,0.04,0.13v0.43c0,0.05-0.01,0.09-0.04,0.13
		c-0.02,0.04-0.06,0.06-0.12,0.06h-2.21c-0.04,0-0.07,0.01-0.11,0.04c-0.03,0.03-0.05,0.06-0.05,0.1V79.75z"/>
	<path class="st0" d="M54.16,78.12c0.03,0,0.06,0.01,0.09,0.04c0.03,0.02,0.03,0.05,0.01,0.08l-1.67,2.98v1.19
		c0,0.05-0.01,0.09-0.03,0.13c-0.02,0.04-0.06,0.06-0.12,0.06h-0.5c-0.05,0-0.09-0.02-0.12-0.06c-0.02-0.04-0.04-0.08-0.04-0.13
		v-1.19l-1.65-2.98c-0.02-0.03-0.01-0.05,0.01-0.08c0.02-0.02,0.06-0.04,0.09-0.04h0.62c0.07,0,0.13,0.03,0.16,0.1l1.18,2.17
		l1.19-2.17c0.04-0.07,0.09-0.1,0.16-0.1H54.16z"/>
	<path class="st0" d="M56.46,79.75c0,0.05,0.01,0.09,0.05,0.12c0.03,0.03,0.07,0.04,0.1,0.04h1.63c0.17,0,0.3,0.03,0.41,0.1
		c0.11,0.06,0.2,0.15,0.26,0.25c0.06,0.1,0.11,0.22,0.14,0.36c0.03,0.14,0.04,0.28,0.04,0.42v0.48c0,0.14-0.02,0.28-0.05,0.41
		c-0.03,0.13-0.08,0.24-0.15,0.34c-0.07,0.1-0.16,0.18-0.27,0.23c-0.11,0.06-0.25,0.09-0.4,0.09h-2.45c-0.06,0-0.1-0.02-0.12-0.06
		c-0.02-0.04-0.04-0.08-0.04-0.13v-0.43c0-0.05,0.01-0.09,0.04-0.13c0.03-0.04,0.07-0.05,0.12-0.05h2.32c0.09,0,0.14-0.03,0.16-0.09
		c0.02-0.06,0.03-0.13,0.03-0.2v-0.47c0-0.07-0.01-0.14-0.03-0.2c-0.02-0.06-0.07-0.1-0.16-0.1h-1.63c-0.3,0-0.52-0.08-0.65-0.25
		c-0.13-0.17-0.2-0.41-0.2-0.71v-0.7c0-0.11,0.01-0.22,0.04-0.33c0.02-0.11,0.07-0.21,0.13-0.3c0.06-0.09,0.15-0.16,0.26-0.22
		c0.11-0.06,0.25-0.09,0.42-0.09h2.34c0.05,0,0.09,0.02,0.12,0.05c0.02,0.04,0.04,0.08,0.04,0.13v0.43c0,0.05-0.01,0.09-0.04,0.13
		c-0.02,0.04-0.06,0.06-0.12,0.06h-2.21c-0.04,0-0.07,0.01-0.11,0.04c-0.03,0.03-0.05,0.06-0.05,0.1V79.75z"/>
	<path class="st0" d="M64.33,78.12c0.02,0,0.06,0.01,0.1,0.03c0.04,0.02,0.06,0.07,0.06,0.15v0.42c0,0.04-0.01,0.08-0.02,0.11
		c-0.01,0.03-0.03,0.05-0.04,0.06c-0.02,0.01-0.03,0.02-0.05,0.02c-0.02,0-0.03,0.01-0.04,0.01h-1.4v3.48
		c0,0.08-0.02,0.14-0.06,0.15c-0.04,0.02-0.07,0.03-0.1,0.03h-0.5c-0.02,0-0.05-0.01-0.09-0.03c-0.04-0.02-0.06-0.07-0.06-0.15
		v-3.48h-1.39c-0.01,0-0.03,0-0.04-0.01c-0.02,0-0.04-0.01-0.05-0.02c-0.02-0.01-0.03-0.03-0.04-0.06
		c-0.01-0.03-0.02-0.06-0.02-0.11V78.3c0-0.08,0.02-0.13,0.06-0.15c0.04-0.02,0.07-0.03,0.1-0.03H64.33z"/>
	<path class="st0" d="M69.23,78.12c0.02,0,0.05,0.01,0.09,0.03c0.04,0.02,0.06,0.08,0.06,0.16v0.42c0,0.08-0.02,0.14-0.06,0.16
		c-0.04,0.02-0.07,0.03-0.09,0.03h-3.12c-0.02,0-0.05-0.01-0.09-0.03c-0.04-0.02-0.06-0.07-0.06-0.15v-0.42
		c0-0.09,0.02-0.14,0.06-0.16c0.04-0.02,0.07-0.03,0.09-0.03H69.23z M66.78,81.29c0,0.18,0.05,0.31,0.14,0.39
		c0.1,0.07,0.23,0.11,0.39,0.11h1.91c0.06,0,0.1,0.02,0.12,0.06c0.02,0.04,0.04,0.08,0.04,0.13v0.43c0,0.05-0.01,0.09-0.04,0.13
		c-0.02,0.04-0.06,0.06-0.12,0.06H67.3c-0.26,0-0.48-0.04-0.65-0.11c-0.17-0.08-0.31-0.18-0.41-0.32c-0.1-0.14-0.17-0.3-0.22-0.5
		c-0.04-0.19-0.06-0.41-0.06-0.65V80.3c0-0.04,0.01-0.09,0.02-0.13c0.01-0.04,0.04-0.08,0.07-0.12c0.03-0.03,0.08-0.06,0.14-0.08
		c0.06-0.02,0.13-0.03,0.21-0.03h2.8c0.05,0,0.09,0.02,0.12,0.05c0.02,0.04,0.04,0.08,0.04,0.13v0.43c0,0.05-0.01,0.09-0.04,0.13
		c-0.02,0.04-0.06,0.06-0.12,0.06h-2.42V81.29z"/>
	<path class="st0" d="M75.45,78.12c0.11,0,0.2,0.02,0.27,0.07c0.06,0.04,0.1,0.1,0.13,0.17c0.03,0.07,0.04,0.14,0.05,0.23
		c0.01,0.08,0.01,0.16,0.01,0.24v3.58c0,0.05-0.01,0.1-0.04,0.13c-0.02,0.04-0.06,0.06-0.12,0.06h-0.47c-0.05,0-0.09-0.02-0.12-0.06
		c-0.02-0.04-0.04-0.08-0.04-0.13v-3.26H75.1l-0.94,2.31c-0.03,0.08-0.07,0.16-0.1,0.24c-0.04,0.08-0.08,0.15-0.14,0.21
		c-0.05,0.06-0.12,0.11-0.2,0.15c-0.08,0.04-0.18,0.05-0.3,0.05c-0.09,0-0.16-0.01-0.23-0.03c-0.07-0.02-0.13-0.05-0.19-0.09
		c-0.06-0.05-0.11-0.11-0.17-0.2c-0.05-0.08-0.11-0.2-0.16-0.33l-0.94-2.31H71.7v3.26c0,0.05-0.01,0.1-0.03,0.13
		c-0.02,0.04-0.06,0.06-0.12,0.06h-0.47c-0.05,0-0.09-0.02-0.12-0.06c-0.03-0.04-0.04-0.08-0.04-0.13v-3.58c0-0.09,0-0.17,0.01-0.26
		c0.01-0.08,0.03-0.16,0.06-0.22c0.03-0.07,0.07-0.12,0.14-0.16c0.06-0.04,0.15-0.06,0.26-0.06h0.5c0.1,0,0.17,0.01,0.23,0.04
		c0.06,0.02,0.11,0.06,0.14,0.1c0.04,0.05,0.07,0.1,0.09,0.16c0.02,0.06,0.05,0.13,0.08,0.21l0.96,2.42h0.06l0.98-2.42
		c0.03-0.08,0.06-0.15,0.08-0.21c0.02-0.06,0.05-0.12,0.09-0.16c0.04-0.04,0.08-0.08,0.14-0.1c0.06-0.02,0.13-0.04,0.23-0.04H75.45z
		"/>
	<path class="st0" d="M78.33,79.75c0,0.05,0.02,0.09,0.05,0.12c0.03,0.03,0.07,0.04,0.1,0.04h1.63c0.17,0,0.3,0.03,0.41,0.1
		c0.11,0.06,0.2,0.15,0.26,0.25c0.06,0.1,0.11,0.22,0.14,0.36c0.03,0.14,0.04,0.28,0.04,0.42v0.48c0,0.14-0.02,0.28-0.05,0.41
		c-0.03,0.13-0.08,0.24-0.15,0.34c-0.07,0.1-0.16,0.18-0.27,0.23c-0.11,0.06-0.25,0.09-0.4,0.09h-2.45c-0.06,0-0.1-0.02-0.12-0.06
		c-0.02-0.04-0.04-0.08-0.04-0.13v-0.43c0-0.05,0.01-0.09,0.04-0.13c0.02-0.04,0.06-0.05,0.12-0.05h2.32c0.09,0,0.14-0.03,0.16-0.09
		c0.02-0.06,0.03-0.13,0.03-0.2v-0.47c0-0.07-0.01-0.14-0.03-0.2c-0.02-0.06-0.07-0.1-0.16-0.1h-1.63c-0.3,0-0.52-0.08-0.65-0.25
		c-0.13-0.17-0.2-0.41-0.2-0.71v-0.7c0-0.11,0.01-0.22,0.04-0.33c0.02-0.11,0.07-0.21,0.13-0.3c0.06-0.09,0.15-0.16,0.26-0.22
		c0.11-0.06,0.25-0.09,0.43-0.09h2.34c0.05,0,0.09,0.02,0.12,0.05c0.02,0.04,0.04,0.08,0.04,0.13v0.43c0,0.05-0.01,0.09-0.04,0.13
		c-0.02,0.04-0.06,0.06-0.12,0.06h-2.21c-0.04,0-0.07,0.01-0.11,0.04c-0.03,0.03-0.05,0.06-0.05,0.1V79.75z"/>
	<path class="st0" d="M87.48,78.12c0.02,0,0.05,0.01,0.09,0.03c0.04,0.02,0.06,0.07,0.06,0.16v4.09c0,0.08-0.02,0.14-0.06,0.16
		c-0.04,0.02-0.07,0.03-0.09,0.03h-0.5c-0.02,0-0.05-0.01-0.09-0.03c-0.04-0.02-0.06-0.07-0.06-0.16v-4.09
		c0-0.08,0.02-0.14,0.06-0.16c0.04-0.02,0.07-0.03,0.09-0.03H87.48z"/>
	<path class="st0" d="M92.91,78.12c0.02,0,0.06,0.01,0.1,0.03c0.04,0.02,0.06,0.07,0.06,0.15v0.42c0,0.04-0.01,0.08-0.02,0.11
		c-0.01,0.03-0.03,0.05-0.04,0.06c-0.02,0.01-0.03,0.02-0.05,0.02c-0.02,0-0.03,0.01-0.04,0.01h-1.4v3.48
		c0,0.08-0.02,0.14-0.06,0.15c-0.04,0.02-0.07,0.03-0.1,0.03h-0.5c-0.02,0-0.05-0.01-0.09-0.03c-0.04-0.02-0.06-0.07-0.06-0.15
		v-3.48h-1.39c-0.01,0-0.03,0-0.04-0.01c-0.02,0-0.04-0.01-0.05-0.02c-0.02-0.01-0.03-0.03-0.04-0.06
		c-0.01-0.03-0.02-0.06-0.02-0.11V78.3c0-0.08,0.02-0.13,0.06-0.15c0.04-0.02,0.07-0.03,0.1-0.03H92.91z"/>
</g>
</svg>
