<?xml version="1.0" encoding="utf-8" ?>
<svg baseProfile="full" height="1024px" version="1.1" width="1024px" xmlns="http://www.w3.org/2000/svg" xmlns:ev="http://www.w3.org/2001/xml-events" xmlns:xlink="http://www.w3.org/1999/xlink"><defs /><path d="M 566,347 L 565,348 L 561,348 L 560,349 L 558,349 L 557,350 L 556,350 L 555,351 L 553,351 L 552,352 L 551,352 L 549,354 L 548,354 L 544,358 L 543,358 L 543,359 L 538,364 L 538,365 L 536,367 L 536,368 L 535,369 L 535,370 L 534,371 L 534,372 L 533,373 L 533,375 L 532,376 L 532,379 L 531,380 L 531,395 L 532,396 L 532,399 L 533,400 L 533,402 L 534,403 L 534,405 L 535,406 L 535,407 L 536,408 L 536,409 L 538,411 L 538,412 L 547,421 L 548,421 L 550,423 L 551,423 L 552,424 L 553,424 L 554,425 L 555,425 L 556,426 L 558,426 L 559,427 L 562,427 L 563,428 L 569,428 L 570,429 L 572,429 L 573,428 L 580,428 L 581,427 L 584,427 L 585,426 L 587,426 L 588,425 L 589,425 L 590,424 L 591,424 L 592,423 L 593,423 L 595,421 L 596,421 L 599,418 L 600,418 L 602,416 L 602,415 L 606,411 L 606,410 L 607,409 L 607,408 L 608,407 L 608,406 L 609,405 L 609,404 L 610,403 L 610,401 L 611,400 L 611,397 L 612,396 L 612,391 L 613,390 L 613,386 L 612,385 L 612,379 L 611,378 L 611,376 L 610,375 L 610,373 L 609,372 L 609,371 L 608,370 L 608,369 L 607,368 L 607,367 L 605,365 L 605,364 L 602,361 L 602,360 L 599,357 L 598,357 L 595,354 L 594,354 L 593,353 L 592,353 L 590,351 L 588,351 L 587,350 L 586,350 L 585,349 L 583,349 L 582,348 L 577,348 L 576,347 Z" fill="blue" /><path d="M 699,272 L 698,273 L 697,273 L 696,274 L 695,274 L 694,275 L 693,275 L 692,276 L 691,276 L 690,277 L 689,277 L 687,279 L 686,279 L 684,281 L 683,281 L 681,283 L 681,284 L 680,285 L 680,286 L 684,290 L 685,290 L 690,295 L 691,295 L 696,300 L 697,300 L 704,307 L 705,307 L 713,315 L 714,315 L 733,334 L 734,334 L 737,337 L 737,338 L 747,348 L 747,349 L 752,354 L 752,355 L 756,359 L 756,360 L 759,363 L 759,364 L 762,367 L 762,368 L 765,371 L 765,372 L 767,374 L 767,375 L 769,377 L 769,378 L 771,380 L 771,381 L 773,383 L 773,384 L 774,385 L 774,386 L 776,388 L 776,389 L 777,390 L 777,391 L 779,393 L 779,394 L 781,396 L 781,397 L 782,398 L 782,399 L 783,400 L 783,401 L 784,402 L 784,403 L 785,404 L 785,405 L 786,406 L 786,407 L 788,409 L 788,410 L 789,411 L 789,412 L 790,413 L 790,414 L 791,415 L 791,416 L 792,417 L 792,419 L 793,420 L 793,421 L 794,422 L 794,423 L 795,424 L 795,425 L 796,426 L 796,427 L 797,428 L 797,430 L 798,431 L 798,432 L 799,433 L 799,435 L 800,436 L 800,438 L 801,439 L 801,440 L 802,441 L 802,443 L 803,444 L 803,446 L 804,447 L 804,449 L 805,450 L 805,452 L 806,453 L 806,455 L 807,456 L 807,458 L 808,459 L 808,460 L 809,461 L 809,464 L 810,465 L 810,467 L 811,468 L 811,471 L 812,472 L 812,474 L 813,475 L 813,477 L 814,478 L 814,481 L 815,482 L 815,485 L 816,486 L 816,490 L 817,491 L 817,496 L 818,497 L 818,502 L 819,503 L 819,508 L 820,509 L 820,516 L 821,517 L 821,525 L 822,526 L 822,565 L 821,566 L 821,569 L 822,570 L 821,571 L 821,578 L 820,579 L 820,580 L 821,581 L 820,582 L 820,586 L 819,587 L 819,594 L 818,595 L 818,600 L 817,601 L 817,604 L 816,605 L 816,609 L 815,610 L 815,613 L 814,614 L 814,618 L 813,619 L 813,622 L 812,623 L 812,625 L 811,626 L 811,629 L 810,630 L 810,633 L 809,634 L 809,636 L 808,637 L 808,639 L 807,640 L 807,642 L 806,643 L 806,645 L 805,646 L 805,648 L 804,649 L 804,651 L 803,652 L 803,653 L 802,654 L 802,656 L 801,657 L 801,658 L 800,659 L 800,661 L 799,662 L 799,663 L 798,664 L 798,666 L 797,667 L 797,668 L 796,669 L 796,670 L 795,671 L 795,672 L 794,673 L 794,675 L 793,676 L 793,677 L 792,678 L 792,679 L 791,680 L 791,681 L 790,682 L 790,683 L 789,684 L 789,685 L 788,686 L 788,687 L 787,688 L 787,689 L 786,690 L 786,691 L 785,692 L 785,693 L 784,694 L 784,695 L 782,697 L 782,698 L 781,699 L 781,700 L 780,701 L 780,702 L 779,703 L 779,704 L 777,706 L 777,707 L 775,709 L 775,710 L 774,711 L 774,712 L 772,714 L 772,715 L 770,717 L 770,718 L 768,720 L 768,721 L 766,723 L 766,724 L 763,727 L 763,728 L 761,730 L 761,731 L 758,734 L 758,735 L 755,738 L 755,739 L 751,743 L 751,744 L 746,749 L 746,750 L 745,751 L 744,751 L 744,752 L 736,760 L 736,761 L 721,776 L 720,776 L 720,777 L 719,778 L 718,778 L 712,784 L 711,784 L 706,789 L 705,789 L 700,794 L 699,794 L 696,797 L 695,797 L 692,800 L 691,800 L 688,803 L 687,803 L 685,805 L 684,805 L 682,807 L 681,807 L 679,809 L 678,809 L 676,811 L 675,811 L 673,813 L 672,813 L 670,815 L 669,815 L 668,816 L 667,816 L 665,818 L 664,818 L 663,819 L 662,819 L 660,821 L 659,821 L 658,822 L 657,822 L 656,823 L 655,823 L 654,824 L 653,824 L 652,825 L 651,825 L 650,826 L 649,826 L 648,827 L 647,827 L 646,828 L 645,828 L 644,829 L 643,829 L 642,830 L 641,830 L 640,831 L 639,831 L 638,832 L 637,832 L 636,833 L 635,833 L 634,834 L 633,834 L 632,835 L 631,835 L 630,836 L 628,836 L 627,837 L 626,837 L 625,838 L 623,838 L 622,839 L 621,839 L 620,840 L 618,840 L 617,841 L 615,841 L 614,842 L 612,842 L 611,843 L 609,843 L 608,844 L 606,844 L 605,845 L 603,845 L 602,846 L 600,846 L 599,847 L 596,847 L 595,848 L 592,848 L 591,849 L 589,849 L 588,850 L 584,850 L 583,851 L 580,851 L 579,852 L 576,852 L 575,853 L 572,853 L 571,854 L 568,854 L 567,855 L 563,855 L 562,856 L 558,856 L 557,857 L 554,857 L 553,858 L 549,858 L 548,859 L 546,859 L 545,858 L 546,857 L 547,857 L 549,855 L 550,855 L 553,852 L 554,852 L 557,849 L 558,849 L 560,847 L 561,847 L 563,845 L 564,845 L 567,842 L 568,842 L 570,840 L 571,840 L 574,837 L 575,837 L 579,833 L 580,833 L 583,830 L 584,830 L 588,826 L 589,826 L 593,822 L 594,822 L 601,815 L 602,815 L 610,807 L 611,807 L 631,787 L 631,786 L 641,776 L 641,775 L 646,770 L 646,769 L 651,764 L 651,763 L 654,760 L 654,759 L 657,756 L 657,755 L 660,752 L 660,751 L 662,749 L 662,748 L 664,746 L 664,745 L 667,742 L 667,741 L 669,739 L 669,738 L 671,736 L 671,735 L 673,733 L 673,732 L 674,731 L 674,730 L 676,728 L 676,727 L 677,726 L 677,725 L 679,723 L 679,722 L 680,721 L 680,720 L 681,719 L 681,718 L 682,717 L 682,716 L 684,714 L 684,713 L 685,712 L 685,711 L 686,710 L 686,709 L 687,708 L 687,707 L 688,706 L 688,705 L 689,704 L 689,703 L 690,702 L 690,701 L 691,700 L 691,699 L 692,698 L 692,696 L 693,695 L 693,694 L 694,693 L 694,692 L 695,691 L 695,690 L 696,689 L 696,688 L 697,687 L 697,686 L 698,685 L 698,683 L 699,682 L 699,681 L 700,680 L 700,678 L 701,677 L 701,675 L 702,674 L 702,673 L 703,672 L 703,670 L 704,669 L 704,667 L 705,666 L 705,664 L 706,663 L 706,661 L 707,660 L 707,657 L 708,656 L 708,654 L 709,653 L 709,650 L 710,649 L 710,647 L 711,646 L 711,643 L 712,642 L 712,639 L 713,638 L 713,635 L 714,634 L 714,631 L 715,630 L 715,627 L 716,626 L 716,622 L 717,621 L 717,618 L 718,617 L 718,612 L 719,611 L 719,606 L 720,605 L 720,599 L 721,598 L 721,588 L 722,587 L 722,570 L 723,569 L 723,564 L 722,563 L 722,562 L 721,561 L 705,561 L 704,560 L 699,560 L 698,559 L 694,559 L 693,558 L 690,558 L 689,557 L 687,557 L 686,556 L 683,556 L 682,555 L 680,555 L 679,554 L 677,554 L 676,553 L 675,553 L 674,552 L 673,552 L 672,551 L 670,551 L 669,550 L 668,550 L 667,549 L 666,549 L 665,548 L 664,548 L 663,547 L 662,547 L 661,546 L 660,546 L 659,545 L 658,545 L 656,543 L 655,543 L 654,542 L 653,542 L 650,539 L 650,537 L 651,536 L 651,535 L 653,533 L 653,531 L 655,529 L 655,528 L 656,527 L 656,526 L 657,525 L 657,524 L 658,523 L 658,522 L 659,521 L 659,520 L 660,519 L 660,518 L 662,516 L 662,515 L 663,514 L 663,513 L 664,512 L 664,511 L 665,510 L 665,509 L 666,508 L 666,507 L 667,506 L 667,505 L 668,504 L 668,503 L 669,502 L 669,501 L 670,500 L 670,499 L 671,498 L 671,497 L 672,496 L 672,495 L 673,494 L 673,493 L 674,492 L 674,491 L 675,490 L 675,489 L 676,488 L 676,487 L 677,486 L 677,485 L 678,484 L 678,483 L 679,482 L 679,481 L 680,480 L 680,478 L 681,477 L 681,476 L 682,475 L 682,474 L 683,473 L 683,471 L 684,470 L 684,469 L 685,468 L 685,466 L 686,465 L 686,463 L 687,462 L 687,460 L 688,459 L 688,457 L 689,456 L 689,453 L 690,452 L 690,440 L 689,439 L 689,437 L 688,436 L 688,435 L 685,432 L 684,432 L 683,431 L 679,431 L 678,432 L 677,432 L 676,433 L 675,433 L 671,437 L 670,437 L 663,444 L 663,445 L 655,453 L 655,454 L 647,462 L 647,463 L 641,469 L 641,470 L 640,471 L 639,471 L 639,472 L 622,489 L 621,489 L 618,492 L 616,490 L 615,490 L 609,484 L 608,484 L 603,479 L 602,479 L 597,474 L 596,474 L 591,469 L 590,469 L 585,464 L 584,464 L 576,456 L 575,456 L 569,450 L 568,450 L 564,446 L 563,446 L 560,443 L 559,443 L 557,441 L 556,441 L 554,439 L 553,439 L 551,437 L 550,437 L 548,435 L 547,435 L 546,434 L 545,434 L 544,433 L 543,433 L 542,432 L 541,432 L 539,430 L 538,430 L 537,429 L 536,429 L 535,428 L 533,428 L 532,427 L 531,427 L 530,426 L 529,426 L 528,425 L 526,425 L 525,424 L 524,424 L 523,423 L 521,423 L 520,422 L 518,422 L 517,421 L 515,421 L 514,420 L 512,420 L 511,419 L 508,419 L 507,418 L 504,418 L 503,417 L 499,417 L 498,416 L 493,416 L 492,415 L 487,415 L 486,414 L 479,414 L 478,413 L 472,413 L 471,412 L 466,412 L 465,411 L 464,412 L 463,411 L 458,411 L 457,410 L 452,410 L 451,409 L 444,409 L 443,408 L 435,408 L 434,407 L 412,407 L 411,408 L 407,408 L 406,409 L 404,409 L 403,410 L 402,410 L 401,411 L 400,411 L 399,412 L 398,412 L 397,413 L 396,413 L 394,415 L 393,415 L 382,426 L 382,427 L 371,438 L 371,439 L 364,446 L 363,446 L 363,447 L 361,449 L 360,449 L 336,473 L 336,474 L 335,475 L 335,476 L 334,477 L 334,478 L 333,479 L 333,483 L 332,484 L 332,493 L 333,494 L 333,495 L 335,497 L 335,498 L 336,498 L 337,499 L 338,499 L 339,500 L 342,500 L 343,501 L 351,501 L 352,500 L 353,500 L 354,499 L 355,499 L 356,498 L 357,498 L 359,496 L 360,496 L 361,495 L 362,495 L 363,494 L 364,494 L 366,492 L 367,492 L 369,490 L 370,490 L 372,488 L 373,488 L 375,486 L 376,486 L 379,483 L 380,483 L 382,481 L 383,481 L 386,478 L 387,478 L 390,475 L 391,475 L 394,472 L 395,472 L 399,468 L 400,468 L 403,465 L 404,465 L 408,461 L 409,461 L 411,459 L 412,459 L 414,457 L 415,457 L 416,456 L 417,456 L 418,455 L 423,455 L 424,456 L 425,456 L 426,457 L 427,457 L 428,458 L 430,458 L 431,459 L 433,459 L 434,460 L 436,460 L 437,461 L 439,461 L 440,462 L 442,462 L 443,463 L 445,463 L 446,464 L 448,464 L 449,465 L 451,465 L 452,466 L 453,466 L 454,467 L 456,467 L 457,468 L 459,468 L 460,469 L 461,469 L 462,470 L 462,472 L 461,473 L 461,474 L 460,475 L 460,476 L 459,477 L 459,478 L 458,479 L 458,480 L 457,481 L 457,482 L 456,483 L 456,484 L 455,485 L 455,486 L 454,487 L 454,488 L 453,489 L 453,490 L 452,491 L 452,492 L 451,493 L 451,494 L 450,495 L 450,496 L 449,497 L 449,498 L 448,499 L 448,500 L 447,501 L 447,502 L 446,503 L 446,504 L 445,505 L 445,506 L 444,507 L 444,508 L 443,509 L 443,510 L 442,511 L 442,512 L 441,513 L 441,514 L 440,515 L 440,516 L 439,517 L 439,518 L 438,519 L 438,520 L 437,521 L 437,522 L 436,523 L 436,524 L 435,525 L 435,526 L 434,527 L 434,528 L 433,529 L 433,530 L 432,531 L 432,532 L 431,533 L 430,533 L 429,534 L 425,534 L 424,535 L 420,535 L 419,536 L 414,536 L 413,537 L 409,537 L 408,538 L 403,538 L 402,539 L 398,539 L 397,540 L 392,540 L 391,541 L 390,540 L 389,541 L 384,541 L 383,542 L 380,542 L 379,543 L 375,543 L 374,544 L 373,543 L 372,544 L 369,544 L 368,545 L 364,545 L 363,546 L 359,546 L 358,547 L 353,547 L 352,548 L 348,548 L 347,549 L 343,549 L 342,550 L 338,550 L 337,551 L 332,551 L 331,552 L 327,552 L 326,553 L 323,553 L 322,554 L 318,554 L 317,555 L 313,555 L 312,556 L 309,556 L 308,557 L 304,557 L 303,558 L 299,558 L 298,559 L 294,559 L 293,560 L 291,560 L 290,561 L 289,561 L 289,594 L 290,595 L 290,604 L 291,605 L 291,609 L 292,610 L 292,615 L 293,616 L 293,621 L 294,622 L 294,626 L 295,627 L 295,630 L 296,631 L 296,634 L 297,635 L 297,638 L 298,639 L 298,642 L 299,643 L 299,645 L 300,646 L 300,648 L 301,649 L 301,652 L 302,653 L 302,655 L 303,656 L 303,658 L 304,659 L 304,661 L 305,662 L 305,664 L 306,665 L 306,666 L 307,667 L 307,669 L 308,670 L 308,672 L 309,673 L 309,675 L 310,676 L 310,677 L 311,678 L 311,680 L 312,681 L 312,682 L 313,683 L 313,684 L 314,685 L 314,687 L 315,688 L 315,689 L 316,690 L 316,691 L 317,692 L 317,693 L 318,694 L 318,696 L 319,697 L 319,698 L 320,699 L 320,700 L 321,701 L 321,702 L 322,703 L 322,704 L 323,705 L 323,706 L 324,707 L 324,708 L 325,709 L 325,710 L 327,712 L 328,712 L 335,705 L 336,705 L 342,699 L 343,699 L 350,692 L 351,692 L 357,686 L 358,686 L 358,685 L 359,684 L 360,684 L 373,671 L 374,671 L 382,663 L 382,662 L 387,657 L 387,656 L 389,654 L 389,652 L 390,651 L 390,648 L 391,647 L 391,644 L 392,643 L 392,641 L 393,640 L 393,638 L 394,637 L 394,635 L 395,634 L 395,631 L 396,630 L 396,628 L 397,627 L 397,625 L 398,624 L 398,622 L 399,621 L 399,619 L 400,618 L 400,616 L 401,615 L 401,612 L 402,611 L 402,610 L 403,609 L 403,606 L 404,605 L 404,604 L 405,603 L 405,601 L 406,600 L 406,598 L 407,597 L 407,595 L 408,594 L 408,592 L 409,591 L 409,589 L 410,588 L 410,586 L 411,585 L 411,583 L 412,582 L 412,580 L 413,579 L 413,577 L 414,576 L 414,575 L 415,574 L 415,572 L 416,571 L 416,569 L 417,568 L 417,566 L 418,565 L 418,564 L 419,563 L 419,562 L 420,561 L 420,560 L 421,559 L 421,558 L 422,557 L 422,556 L 423,555 L 424,556 L 424,570 L 425,571 L 425,574 L 426,575 L 426,577 L 427,578 L 427,580 L 428,581 L 428,582 L 429,583 L 429,584 L 430,585 L 430,586 L 432,588 L 432,589 L 441,598 L 442,598 L 445,601 L 446,601 L 447,602 L 448,602 L 450,604 L 451,604 L 452,605 L 453,605 L 454,606 L 455,606 L 456,607 L 457,607 L 458,608 L 460,608 L 461,609 L 462,609 L 463,610 L 465,610 L 466,611 L 467,611 L 468,612 L 469,612 L 470,613 L 472,613 L 473,614 L 475,614 L 476,615 L 478,615 L 479,616 L 481,616 L 482,617 L 485,617 L 486,618 L 488,618 L 489,619 L 491,619 L 492,620 L 494,620 L 495,621 L 498,621 L 499,622 L 502,622 L 503,623 L 507,623 L 508,624 L 511,624 L 512,625 L 516,625 L 517,626 L 521,626 L 522,627 L 525,627 L 526,628 L 529,628 L 530,629 L 534,629 L 535,630 L 537,630 L 539,632 L 539,634 L 538,635 L 538,636 L 537,637 L 537,639 L 536,640 L 536,642 L 535,643 L 535,644 L 534,645 L 534,647 L 533,648 L 533,649 L 532,650 L 532,652 L 531,653 L 531,654 L 530,655 L 530,656 L 529,657 L 529,658 L 528,659 L 528,661 L 527,662 L 527,663 L 526,664 L 526,665 L 525,666 L 525,667 L 524,668 L 524,669 L 523,670 L 523,671 L 522,672 L 522,673 L 521,674 L 521,675 L 520,676 L 520,677 L 519,678 L 519,679 L 518,680 L 518,681 L 516,683 L 516,684 L 515,685 L 515,686 L 514,687 L 514,688 L 513,689 L 513,690 L 512,691 L 512,692 L 510,694 L 510,695 L 509,696 L 509,697 L 507,699 L 507,700 L 506,701 L 506,702 L 504,704 L 504,705 L 503,706 L 503,707 L 502,708 L 502,709 L 501,710 L 501,711 L 500,712 L 500,713 L 499,714 L 499,716 L 498,717 L 498,718 L 497,719 L 497,722 L 496,723 L 496,726 L 495,727 L 495,736 L 496,737 L 496,740 L 501,745 L 503,745 L 504,746 L 509,746 L 510,745 L 514,745 L 515,744 L 516,744 L 517,743 L 518,743 L 519,742 L 520,742 L 522,740 L 523,740 L 530,733 L 530,732 L 532,730 L 532,729 L 533,728 L 533,727 L 534,726 L 534,725 L 536,723 L 536,722 L 538,720 L 538,719 L 540,717 L 540,716 L 543,713 L 543,712 L 545,710 L 545,709 L 548,706 L 548,705 L 551,702 L 551,701 L 553,699 L 553,698 L 556,695 L 556,694 L 559,691 L 559,690 L 561,688 L 561,687 L 564,684 L 564,683 L 566,681 L 566,680 L 569,677 L 569,676 L 571,674 L 571,673 L 573,671 L 573,670 L 576,667 L 576,666 L 578,664 L 578,663 L 580,661 L 580,660 L 582,658 L 582,657 L 584,655 L 584,654 L 585,653 L 585,652 L 587,650 L 587,649 L 588,648 L 588,647 L 590,645 L 590,643 L 591,642 L 591,641 L 592,640 L 592,639 L 593,638 L 593,637 L 594,636 L 594,634 L 595,633 L 595,632 L 596,631 L 596,630 L 597,629 L 597,627 L 598,626 L 598,623 L 599,622 L 599,616 L 598,615 L 598,612 L 597,611 L 597,609 L 596,608 L 596,607 L 595,606 L 595,605 L 594,604 L 594,603 L 593,602 L 593,601 L 584,592 L 583,592 L 581,590 L 580,590 L 578,588 L 577,588 L 575,586 L 574,586 L 573,585 L 572,585 L 571,584 L 570,584 L 568,582 L 567,582 L 566,581 L 565,581 L 564,580 L 563,580 L 562,579 L 561,579 L 560,578 L 559,578 L 558,577 L 557,577 L 556,576 L 555,576 L 553,574 L 552,574 L 551,573 L 550,573 L 549,572 L 548,572 L 547,571 L 546,571 L 545,570 L 544,570 L 543,569 L 542,569 L 541,568 L 540,568 L 539,567 L 538,567 L 537,566 L 536,566 L 535,565 L 534,565 L 533,564 L 532,564 L 530,562 L 529,562 L 528,561 L 527,561 L 526,560 L 525,560 L 524,559 L 523,559 L 522,558 L 521,558 L 520,557 L 519,557 L 518,556 L 517,556 L 516,555 L 516,554 L 517,553 L 517,551 L 519,549 L 519,548 L 522,545 L 522,544 L 525,541 L 525,540 L 528,537 L 528,536 L 532,532 L 532,531 L 535,528 L 535,527 L 537,525 L 537,524 L 540,521 L 540,520 L 542,518 L 542,517 L 544,515 L 544,514 L 546,512 L 546,511 L 550,507 L 552,507 L 553,508 L 554,508 L 555,509 L 556,509 L 557,510 L 558,510 L 559,511 L 560,511 L 561,512 L 562,512 L 563,513 L 564,513 L 565,514 L 566,514 L 567,515 L 568,515 L 569,516 L 570,516 L 571,517 L 572,517 L 573,518 L 574,518 L 575,519 L 576,519 L 577,520 L 578,520 L 579,521 L 580,521 L 581,522 L 582,522 L 584,524 L 585,524 L 586,525 L 587,525 L 588,526 L 589,526 L 590,527 L 591,527 L 592,528 L 593,528 L 594,529 L 595,529 L 596,530 L 597,530 L 598,531 L 599,531 L 600,532 L 601,532 L 602,533 L 603,533 L 604,534 L 605,534 L 606,535 L 607,535 L 608,536 L 609,536 L 610,537 L 611,537 L 612,538 L 613,538 L 614,539 L 616,539 L 617,540 L 618,540 L 619,541 L 620,541 L 621,542 L 622,542 L 623,543 L 624,543 L 625,544 L 626,544 L 627,545 L 628,545 L 629,546 L 630,546 L 631,547 L 632,547 L 633,548 L 634,548 L 635,549 L 636,549 L 637,550 L 638,550 L 639,551 L 640,551 L 641,552 L 642,552 L 643,553 L 644,553 L 646,555 L 647,555 L 648,556 L 649,556 L 650,557 L 651,557 L 653,559 L 654,559 L 655,560 L 656,560 L 658,562 L 659,562 L 660,563 L 661,563 L 662,564 L 663,564 L 664,565 L 665,565 L 666,566 L 667,566 L 668,567 L 669,567 L 670,568 L 672,568 L 673,569 L 674,569 L 675,570 L 676,570 L 677,571 L 679,571 L 680,572 L 682,572 L 683,573 L 685,573 L 686,574 L 689,574 L 691,576 L 691,581 L 690,582 L 690,584 L 691,585 L 690,586 L 690,592 L 689,593 L 689,600 L 688,601 L 688,605 L 687,606 L 688,607 L 687,608 L 687,611 L 686,612 L 686,616 L 685,617 L 685,620 L 684,621 L 684,625 L 683,626 L 683,629 L 682,630 L 682,632 L 681,633 L 681,636 L 680,637 L 680,640 L 679,641 L 679,643 L 678,644 L 678,647 L 677,648 L 677,650 L 676,651 L 676,653 L 675,654 L 675,656 L 674,657 L 674,659 L 673,660 L 673,662 L 672,663 L 672,664 L 671,665 L 671,667 L 670,668 L 670,670 L 669,671 L 669,672 L 668,673 L 668,674 L 667,675 L 667,677 L 666,678 L 666,679 L 665,680 L 665,681 L 664,682 L 664,684 L 663,685 L 663,686 L 662,687 L 662,688 L 661,689 L 661,690 L 660,691 L 660,692 L 659,693 L 659,694 L 658,695 L 658,696 L 657,697 L 657,698 L 656,699 L 656,700 L 655,701 L 655,702 L 653,704 L 653,705 L 652,706 L 652,707 L 651,708 L 651,709 L 649,711 L 649,712 L 648,713 L 648,714 L 647,715 L 647,716 L 645,718 L 645,719 L 643,721 L 643,722 L 642,723 L 642,724 L 639,727 L 639,728 L 638,729 L 638,730 L 635,733 L 635,734 L 633,736 L 633,737 L 630,740 L 630,741 L 627,744 L 627,745 L 623,749 L 623,750 L 618,755 L 618,756 L 608,766 L 608,767 L 599,776 L 598,776 L 584,790 L 583,790 L 577,796 L 576,796 L 572,800 L 571,800 L 567,804 L 566,804 L 563,807 L 562,807 L 559,810 L 558,810 L 555,813 L 554,813 L 552,815 L 551,815 L 548,818 L 547,818 L 545,820 L 544,820 L 542,822 L 541,822 L 539,824 L 538,824 L 536,826 L 535,826 L 533,828 L 532,828 L 530,830 L 529,830 L 528,831 L 527,831 L 525,833 L 524,833 L 523,834 L 522,834 L 520,836 L 519,836 L 518,837 L 517,837 L 516,838 L 515,838 L 513,840 L 512,840 L 511,841 L 508,841 L 507,840 L 505,840 L 504,839 L 503,839 L 502,838 L 501,838 L 500,837 L 499,837 L 498,836 L 497,836 L 496,835 L 495,835 L 493,833 L 492,833 L 491,832 L 490,832 L 489,831 L 488,831 L 487,830 L 486,830 L 485,829 L 484,829 L 482,827 L 481,827 L 480,826 L 479,826 L 478,825 L 477,825 L 475,823 L 474,823 L 472,821 L 471,821 L 470,820 L 469,820 L 468,819 L 467,819 L 465,817 L 464,817 L 462,815 L 461,815 L 459,813 L 458,813 L 456,811 L 455,811 L 453,809 L 452,809 L 450,807 L 449,807 L 447,805 L 446,805 L 443,802 L 442,802 L 439,799 L 438,799 L 434,795 L 433,795 L 430,792 L 429,792 L 423,786 L 422,786 L 413,777 L 412,777 L 396,761 L 395,761 L 380,746 L 380,745 L 386,739 L 386,738 L 394,730 L 395,730 L 403,722 L 404,722 L 409,717 L 410,717 L 414,713 L 415,713 L 419,709 L 420,709 L 423,706 L 424,706 L 427,703 L 428,703 L 432,699 L 433,699 L 436,696 L 437,696 L 440,693 L 441,693 L 444,690 L 445,690 L 449,686 L 450,686 L 453,683 L 453,682 L 456,679 L 456,678 L 458,676 L 458,675 L 460,673 L 460,672 L 462,670 L 462,669 L 463,668 L 463,667 L 465,665 L 465,664 L 467,662 L 467,661 L 468,660 L 468,659 L 470,657 L 470,656 L 471,655 L 471,654 L 473,652 L 473,651 L 474,650 L 474,649 L 476,647 L 476,646 L 477,645 L 477,644 L 478,643 L 478,642 L 480,640 L 480,639 L 481,638 L 481,637 L 482,636 L 481,635 L 480,635 L 479,634 L 477,634 L 476,633 L 474,633 L 473,632 L 471,632 L 470,631 L 469,631 L 468,630 L 465,630 L 464,629 L 462,629 L 461,628 L 460,628 L 459,627 L 457,627 L 456,626 L 454,626 L 453,625 L 452,625 L 451,624 L 449,624 L 448,623 L 446,623 L 445,622 L 444,622 L 442,620 L 441,620 L 439,618 L 438,618 L 436,620 L 436,621 L 435,622 L 435,623 L 434,624 L 434,625 L 432,627 L 432,628 L 431,629 L 431,630 L 430,631 L 430,632 L 429,633 L 429,634 L 428,635 L 428,636 L 427,637 L 427,638 L 426,639 L 426,640 L 425,641 L 425,642 L 423,644 L 423,645 L 422,646 L 422,647 L 421,648 L 421,649 L 420,650 L 420,651 L 419,652 L 419,653 L 417,655 L 417,656 L 415,658 L 415,659 L 411,663 L 411,664 L 400,675 L 399,675 L 388,686 L 387,686 L 373,700 L 372,700 L 358,714 L 357,714 L 343,728 L 343,729 L 323,749 L 323,750 L 320,753 L 320,755 L 319,756 L 319,764 L 320,765 L 320,766 L 324,770 L 325,770 L 326,771 L 329,771 L 330,772 L 337,772 L 338,771 L 341,771 L 342,770 L 344,770 L 345,769 L 346,769 L 347,768 L 349,768 L 350,767 L 351,767 L 352,766 L 353,766 L 354,765 L 355,765 L 360,770 L 360,771 L 377,788 L 377,789 L 380,792 L 381,792 L 405,816 L 406,816 L 413,823 L 414,823 L 418,827 L 419,827 L 422,830 L 423,830 L 427,834 L 428,834 L 430,836 L 431,836 L 434,839 L 435,839 L 438,842 L 439,842 L 441,844 L 442,844 L 444,846 L 445,846 L 447,848 L 448,848 L 450,850 L 451,850 L 453,852 L 454,852 L 456,854 L 457,854 L 459,856 L 458,857 L 457,857 L 456,856 L 452,856 L 451,855 L 448,855 L 447,854 L 443,854 L 442,853 L 439,853 L 438,852 L 434,852 L 433,851 L 430,851 L 429,850 L 426,850 L 425,849 L 422,849 L 421,848 L 419,848 L 418,847 L 415,847 L 414,846 L 411,846 L 410,845 L 408,845 L 407,844 L 405,844 L 404,843 L 402,843 L 401,842 L 399,842 L 398,841 L 396,841 L 395,840 L 394,840 L 393,839 L 391,839 L 390,838 L 389,838 L 388,837 L 386,837 L 385,836 L 384,836 L 383,835 L 382,835 L 381,834 L 380,834 L 379,833 L 377,833 L 376,832 L 375,832 L 374,831 L 373,831 L 372,830 L 371,830 L 369,828 L 368,828 L 367,827 L 366,827 L 365,826 L 364,826 L 363,825 L 362,825 L 361,824 L 360,824 L 359,823 L 358,823 L 357,822 L 356,822 L 354,820 L 353,820 L 352,819 L 351,819 L 350,818 L 349,818 L 347,816 L 346,816 L 344,814 L 343,814 L 341,812 L 340,812 L 339,811 L 338,811 L 336,809 L 335,809 L 333,807 L 332,807 L 329,804 L 328,804 L 326,802 L 325,802 L 323,800 L 322,800 L 319,797 L 318,797 L 315,794 L 314,794 L 311,791 L 310,791 L 304,785 L 303,785 L 297,779 L 296,779 L 272,755 L 272,754 L 271,754 L 270,753 L 270,752 L 264,746 L 264,745 L 259,740 L 259,739 L 256,736 L 256,735 L 253,732 L 253,731 L 251,729 L 251,728 L 249,726 L 249,725 L 246,722 L 246,721 L 245,720 L 245,719 L 243,717 L 243,716 L 241,714 L 241,713 L 239,711 L 239,710 L 237,708 L 237,707 L 236,706 L 236,705 L 234,703 L 234,702 L 233,701 L 233,700 L 232,699 L 232,698 L 231,697 L 231,696 L 230,695 L 230,694 L 228,692 L 228,691 L 227,690 L 227,689 L 226,688 L 226,686 L 224,684 L 224,683 L 223,682 L 223,681 L 222,680 L 222,678 L 221,677 L 221,676 L 220,675 L 220,674 L 219,673 L 219,672 L 218,671 L 218,670 L 217,669 L 217,667 L 216,666 L 216,665 L 215,664 L 215,662 L 214,661 L 214,660 L 213,659 L 213,657 L 212,656 L 212,654 L 211,653 L 211,652 L 210,651 L 210,649 L 209,648 L 209,646 L 208,645 L 208,642 L 207,641 L 207,639 L 206,638 L 206,636 L 205,635 L 205,632 L 204,631 L 204,629 L 203,628 L 203,625 L 202,624 L 202,621 L 201,620 L 201,618 L 200,617 L 200,612 L 199,611 L 199,608 L 198,607 L 198,603 L 197,602 L 197,596 L 196,595 L 196,591 L 195,590 L 195,584 L 194,583 L 195,582 L 195,580 L 194,579 L 194,568 L 193,567 L 193,566 L 194,565 L 194,564 L 193,563 L 193,540 L 194,539 L 194,524 L 195,523 L 195,516 L 196,515 L 196,507 L 197,506 L 197,502 L 198,501 L 197,500 L 198,499 L 198,495 L 199,494 L 199,490 L 200,489 L 200,486 L 201,485 L 201,482 L 202,481 L 202,478 L 203,477 L 203,475 L 204,474 L 204,471 L 205,470 L 205,468 L 206,467 L 206,465 L 207,464 L 207,462 L 208,461 L 208,459 L 209,458 L 209,456 L 210,455 L 210,452 L 211,451 L 211,449 L 212,448 L 212,447 L 213,446 L 213,444 L 214,443 L 214,441 L 215,440 L 215,439 L 216,438 L 216,436 L 217,435 L 217,434 L 218,433 L 218,431 L 219,430 L 219,429 L 220,428 L 220,426 L 221,425 L 221,424 L 222,423 L 222,422 L 223,421 L 223,420 L 224,419 L 224,418 L 225,417 L 225,416 L 226,415 L 226,414 L 227,413 L 227,412 L 228,411 L 228,410 L 230,408 L 230,407 L 231,406 L 231,405 L 232,404 L 232,403 L 233,402 L 233,401 L 234,400 L 234,399 L 236,397 L 236,396 L 237,395 L 237,394 L 239,392 L 239,391 L 240,390 L 240,389 L 242,387 L 242,386 L 244,384 L 244,383 L 246,381 L 246,380 L 248,378 L 248,377 L 250,375 L 250,374 L 252,372 L 252,371 L 255,368 L 255,367 L 258,364 L 258,363 L 260,361 L 260,360 L 264,356 L 264,355 L 268,351 L 268,350 L 271,347 L 271,346 L 275,342 L 275,341 L 278,338 L 278,316 L 277,315 L 277,308 L 276,307 L 276,304 L 275,303 L 275,302 L 272,302 L 271,303 L 270,303 L 259,314 L 259,315 L 250,324 L 250,325 L 243,332 L 243,333 L 239,337 L 239,338 L 235,342 L 235,343 L 232,346 L 232,347 L 229,350 L 229,351 L 227,353 L 227,354 L 224,357 L 224,358 L 222,360 L 222,361 L 220,363 L 220,364 L 218,366 L 218,367 L 216,369 L 216,370 L 214,372 L 214,373 L 213,374 L 213,375 L 211,377 L 211,378 L 210,379 L 210,380 L 209,381 L 209,382 L 207,384 L 207,385 L 206,386 L 206,387 L 205,388 L 205,389 L 203,391 L 203,392 L 202,393 L 202,394 L 201,395 L 201,396 L 200,397 L 200,398 L 199,399 L 199,400 L 198,401 L 198,402 L 197,403 L 197,404 L 196,405 L 196,406 L 195,407 L 195,408 L 194,409 L 194,410 L 193,411 L 193,413 L 192,414 L 192,415 L 191,416 L 191,417 L 190,418 L 190,420 L 189,421 L 189,422 L 188,423 L 188,424 L 187,425 L 187,427 L 186,428 L 186,430 L 185,431 L 185,432 L 184,433 L 184,435 L 183,436 L 183,438 L 182,439 L 182,441 L 181,442 L 181,443 L 180,444 L 180,446 L 179,447 L 179,450 L 178,451 L 178,453 L 177,454 L 177,456 L 176,457 L 176,459 L 175,460 L 175,463 L 174,464 L 174,467 L 173,468 L 173,471 L 172,472 L 172,475 L 171,476 L 171,479 L 170,480 L 170,484 L 169,485 L 169,491 L 168,492 L 168,496 L 167,497 L 167,502 L 166,503 L 166,510 L 165,511 L 165,519 L 164,520 L 164,533 L 163,534 L 163,564 L 164,565 L 164,579 L 165,580 L 165,587 L 166,588 L 166,595 L 167,596 L 167,601 L 168,602 L 168,607 L 169,608 L 169,612 L 170,613 L 170,617 L 171,618 L 171,622 L 172,623 L 172,626 L 173,627 L 173,630 L 174,631 L 174,634 L 175,635 L 175,637 L 176,638 L 176,641 L 177,642 L 177,644 L 178,645 L 178,648 L 179,649 L 179,651 L 180,652 L 180,654 L 181,655 L 181,657 L 182,658 L 182,660 L 183,661 L 183,663 L 184,664 L 184,665 L 185,666 L 185,668 L 186,669 L 186,671 L 187,672 L 187,673 L 188,674 L 188,676 L 189,677 L 189,678 L 190,679 L 190,680 L 191,681 L 191,683 L 192,684 L 192,685 L 193,686 L 193,687 L 194,688 L 194,689 L 195,690 L 195,691 L 196,692 L 196,694 L 197,695 L 197,696 L 198,697 L 198,698 L 199,699 L 199,700 L 200,701 L 200,702 L 201,703 L 201,704 L 202,705 L 202,706 L 204,708 L 204,709 L 205,710 L 205,711 L 206,712 L 206,713 L 207,714 L 207,715 L 208,716 L 208,717 L 210,719 L 210,720 L 211,721 L 211,722 L 213,724 L 213,725 L 215,727 L 215,728 L 216,729 L 216,730 L 218,732 L 218,733 L 220,735 L 220,736 L 222,738 L 222,739 L 224,741 L 224,742 L 227,745 L 227,746 L 229,748 L 229,749 L 232,752 L 232,753 L 236,757 L 236,758 L 238,760 L 238,761 L 242,765 L 242,766 L 251,775 L 251,776 L 279,804 L 280,804 L 286,810 L 287,810 L 291,814 L 292,814 L 296,818 L 297,818 L 300,821 L 301,821 L 303,823 L 304,823 L 307,826 L 308,826 L 311,829 L 312,829 L 314,831 L 315,831 L 317,833 L 318,833 L 320,835 L 321,835 L 323,837 L 324,837 L 325,838 L 326,838 L 328,840 L 329,840 L 330,841 L 331,841 L 333,843 L 334,843 L 335,844 L 336,844 L 337,845 L 338,845 L 340,847 L 341,847 L 342,848 L 343,848 L 344,849 L 345,849 L 346,850 L 347,850 L 348,851 L 349,851 L 350,852 L 351,852 L 352,853 L 353,853 L 354,854 L 355,854 L 356,855 L 357,855 L 358,856 L 359,856 L 360,857 L 361,857 L 362,858 L 363,858 L 364,859 L 365,859 L 366,860 L 367,860 L 368,861 L 370,861 L 371,862 L 372,862 L 373,863 L 374,863 L 375,864 L 377,864 L 378,865 L 379,865 L 380,866 L 382,866 L 383,867 L 385,867 L 386,868 L 388,868 L 389,869 L 390,869 L 391,870 L 393,870 L 394,871 L 396,871 L 397,872 L 399,872 L 400,873 L 402,873 L 403,874 L 405,874 L 406,875 L 408,875 L 409,876 L 412,876 L 413,877 L 416,877 L 417,878 L 419,878 L 420,879 L 423,879 L 424,880 L 428,880 L 429,881 L 432,881 L 433,882 L 437,882 L 438,883 L 442,883 L 443,884 L 448,884 L 449,885 L 454,885 L 455,886 L 461,886 L 462,887 L 471,887 L 472,888 L 481,888 L 482,889 L 499,889 L 500,890 L 501,889 L 508,889 L 509,890 L 510,889 L 511,889 L 512,890 L 516,890 L 517,889 L 533,889 L 534,888 L 542,888 L 543,887 L 552,887 L 553,886 L 558,886 L 559,885 L 564,885 L 565,884 L 571,884 L 572,883 L 575,883 L 576,882 L 580,882 L 581,881 L 585,881 L 586,880 L 589,880 L 590,879 L 593,879 L 594,878 L 596,878 L 597,877 L 600,877 L 601,876 L 603,876 L 604,875 L 606,875 L 607,874 L 610,874 L 611,873 L 613,873 L 614,872 L 616,872 L 617,871 L 619,871 L 620,870 L 621,870 L 622,869 L 624,869 L 625,868 L 627,868 L 628,867 L 629,867 L 630,866 L 632,866 L 633,865 L 635,865 L 636,864 L 637,864 L 638,863 L 639,863 L 640,862 L 642,862 L 643,861 L 644,861 L 645,860 L 646,860 L 647,859 L 649,859 L 650,858 L 651,858 L 652,857 L 653,857 L 654,856 L 655,856 L 656,855 L 657,855 L 658,854 L 659,854 L 660,853 L 661,853 L 662,852 L 663,852 L 664,851 L 665,851 L 666,850 L 667,850 L 668,849 L 669,849 L 671,847 L 672,847 L 673,846 L 674,846 L 675,845 L 676,845 L 678,843 L 679,843 L 680,842 L 681,842 L 683,840 L 684,840 L 685,839 L 686,839 L 688,837 L 689,837 L 691,835 L 692,835 L 693,834 L 694,834 L 696,832 L 697,832 L 699,830 L 700,830 L 702,828 L 703,828 L 706,825 L 707,825 L 710,822 L 711,822 L 714,819 L 715,819 L 719,815 L 720,815 L 723,812 L 724,812 L 728,808 L 729,808 L 736,801 L 737,801 L 764,774 L 764,773 L 771,766 L 771,765 L 776,760 L 776,759 L 779,756 L 779,755 L 782,752 L 782,751 L 785,748 L 785,747 L 788,744 L 788,743 L 790,741 L 790,740 L 793,737 L 793,736 L 795,734 L 795,733 L 797,731 L 797,730 L 798,729 L 798,728 L 800,726 L 800,725 L 802,723 L 802,722 L 803,721 L 803,720 L 805,718 L 805,717 L 806,716 L 806,715 L 807,714 L 807,713 L 809,711 L 809,710 L 810,709 L 810,708 L 811,707 L 811,706 L 812,705 L 812,704 L 813,703 L 813,702 L 815,700 L 815,699 L 816,698 L 816,697 L 817,696 L 817,694 L 818,693 L 818,692 L 819,691 L 819,690 L 820,689 L 820,688 L 821,687 L 821,686 L 822,685 L 822,684 L 823,683 L 823,681 L 824,680 L 824,679 L 825,678 L 825,677 L 826,676 L 826,674 L 827,673 L 827,672 L 828,671 L 828,669 L 829,668 L 829,667 L 830,666 L 830,664 L 831,663 L 831,661 L 832,660 L 832,658 L 833,657 L 833,656 L 834,655 L 834,653 L 835,652 L 835,650 L 836,649 L 836,647 L 837,646 L 837,644 L 838,643 L 838,640 L 839,639 L 839,637 L 840,636 L 840,633 L 841,632 L 841,630 L 842,629 L 842,626 L 843,625 L 843,622 L 844,621 L 844,618 L 845,617 L 845,613 L 846,612 L 846,608 L 847,607 L 847,602 L 848,601 L 848,597 L 849,596 L 848,595 L 849,594 L 849,588 L 850,587 L 850,580 L 851,579 L 851,569 L 852,568 L 852,525 L 851,524 L 851,514 L 850,513 L 850,505 L 849,504 L 849,498 L 848,497 L 848,492 L 847,491 L 847,487 L 846,486 L 846,482 L 845,481 L 845,477 L 844,476 L 844,473 L 843,472 L 843,469 L 842,468 L 842,465 L 841,464 L 841,462 L 840,461 L 840,458 L 839,457 L 839,455 L 838,454 L 838,451 L 837,450 L 837,448 L 836,447 L 836,445 L 835,444 L 835,443 L 834,442 L 834,440 L 833,439 L 833,437 L 832,436 L 832,434 L 831,433 L 831,431 L 830,430 L 830,429 L 829,428 L 829,426 L 828,425 L 828,424 L 827,423 L 827,422 L 826,421 L 826,419 L 825,418 L 825,417 L 824,416 L 824,414 L 823,413 L 823,412 L 822,411 L 822,410 L 821,409 L 821,408 L 820,407 L 820,406 L 819,405 L 819,404 L 818,403 L 818,402 L 817,401 L 817,400 L 816,399 L 816,398 L 815,397 L 815,396 L 814,395 L 814,394 L 813,393 L 813,392 L 812,391 L 812,390 L 811,389 L 811,388 L 809,386 L 809,385 L 808,384 L 808,383 L 807,382 L 807,381 L 805,379 L 805,378 L 804,377 L 804,376 L 802,374 L 802,373 L 801,372 L 801,371 L 799,369 L 799,368 L 797,366 L 797,365 L 795,363 L 795,362 L 793,360 L 793,359 L 791,357 L 791,356 L 788,353 L 788,352 L 785,349 L 785,348 L 782,345 L 782,344 L 778,340 L 778,339 L 774,335 L 774,334 L 768,328 L 768,327 L 747,306 L 746,306 L 738,298 L 737,298 L 734,295 L 733,295 L 729,291 L 728,291 L 725,288 L 724,288 L 721,285 L 720,285 L 717,282 L 716,282 L 714,280 L 713,280 L 711,278 L 710,278 L 708,276 L 707,276 L 705,274 L 704,274 L 702,272 Z" fill="blue" /><path d="M 508,117 L 507,118 L 506,118 L 505,119 L 504,119 L 503,120 L 502,120 L 501,121 L 499,121 L 498,122 L 497,122 L 496,123 L 495,123 L 494,124 L 492,124 L 491,125 L 490,125 L 489,126 L 488,126 L 487,127 L 485,127 L 484,128 L 483,128 L 482,129 L 481,129 L 480,130 L 478,130 L 477,131 L 476,131 L 475,132 L 474,132 L 473,133 L 471,133 L 470,134 L 469,134 L 468,135 L 467,135 L 466,136 L 465,136 L 464,137 L 462,137 L 461,138 L 460,138 L 459,139 L 458,139 L 457,140 L 455,140 L 454,141 L 453,141 L 452,142 L 451,142 L 450,143 L 448,143 L 447,144 L 446,144 L 445,145 L 444,145 L 443,146 L 442,146 L 441,147 L 439,147 L 438,148 L 437,148 L 436,149 L 434,149 L 433,150 L 432,150 L 431,151 L 430,151 L 429,152 L 428,152 L 427,153 L 425,153 L 424,154 L 423,154 L 422,155 L 420,155 L 419,156 L 418,156 L 417,157 L 416,157 L 415,158 L 413,158 L 412,159 L 411,159 L 410,160 L 409,160 L 408,161 L 406,161 L 405,162 L 404,162 L 403,163 L 402,163 L 401,164 L 399,164 L 398,165 L 397,165 L 396,166 L 395,166 L 394,167 L 392,167 L 391,168 L 390,168 L 389,169 L 388,169 L 387,170 L 386,170 L 385,171 L 383,171 L 382,172 L 381,172 L 380,173 L 379,173 L 378,174 L 376,174 L 375,175 L 374,175 L 373,176 L 372,176 L 371,177 L 370,177 L 369,178 L 367,178 L 366,179 L 365,179 L 364,180 L 362,180 L 361,181 L 360,181 L 359,182 L 358,182 L 357,183 L 355,183 L 354,184 L 353,184 L 352,185 L 351,185 L 350,186 L 348,186 L 347,187 L 346,187 L 345,188 L 344,188 L 343,189 L 341,189 L 340,190 L 339,190 L 338,191 L 337,191 L 336,192 L 334,192 L 333,193 L 332,193 L 331,194 L 330,194 L 329,195 L 327,195 L 326,196 L 325,196 L 324,197 L 323,197 L 322,198 L 320,198 L 319,199 L 318,199 L 317,200 L 316,200 L 315,201 L 313,201 L 312,202 L 311,202 L 310,203 L 309,203 L 308,204 L 306,204 L 305,205 L 304,205 L 303,206 L 302,206 L 301,207 L 299,207 L 298,208 L 297,208 L 296,209 L 294,209 L 293,210 L 292,210 L 291,211 L 290,211 L 289,212 L 287,212 L 286,213 L 285,213 L 284,214 L 282,214 L 281,215 L 280,215 L 277,218 L 277,223 L 280,226 L 281,226 L 282,227 L 284,227 L 285,228 L 287,228 L 288,229 L 290,229 L 291,230 L 292,230 L 293,231 L 295,231 L 296,232 L 297,232 L 298,233 L 300,233 L 301,234 L 302,234 L 303,235 L 305,235 L 306,236 L 308,236 L 309,237 L 310,237 L 312,239 L 312,300 L 311,301 L 309,301 L 308,302 L 307,302 L 306,303 L 305,303 L 299,309 L 299,310 L 297,312 L 297,314 L 296,315 L 296,320 L 295,321 L 296,322 L 296,326 L 297,327 L 297,329 L 298,330 L 298,331 L 299,332 L 299,333 L 302,336 L 302,338 L 301,339 L 301,343 L 300,344 L 300,348 L 299,349 L 299,354 L 298,355 L 298,359 L 297,360 L 297,364 L 296,365 L 296,369 L 295,370 L 295,375 L 294,376 L 294,383 L 295,384 L 295,385 L 296,386 L 297,386 L 298,387 L 299,387 L 300,388 L 331,388 L 332,387 L 333,388 L 334,387 L 335,387 L 337,385 L 337,384 L 338,383 L 338,380 L 337,379 L 337,374 L 336,373 L 336,368 L 335,367 L 335,363 L 334,362 L 334,357 L 333,356 L 333,352 L 332,351 L 332,346 L 331,345 L 331,340 L 330,339 L 330,335 L 331,334 L 331,333 L 332,332 L 332,331 L 333,330 L 333,329 L 334,328 L 334,326 L 335,325 L 335,317 L 334,316 L 334,313 L 333,312 L 333,311 L 331,309 L 331,308 L 327,304 L 326,304 L 321,299 L 321,285 L 322,284 L 321,283 L 321,282 L 322,281 L 321,280 L 322,279 L 321,278 L 321,277 L 322,276 L 321,275 L 322,274 L 322,267 L 321,266 L 322,265 L 322,264 L 321,263 L 322,262 L 322,261 L 321,260 L 322,259 L 322,257 L 321,256 L 322,255 L 322,254 L 321,253 L 322,252 L 322,246 L 321,245 L 321,244 L 322,243 L 326,243 L 327,244 L 329,244 L 330,245 L 331,245 L 332,246 L 334,246 L 335,247 L 336,247 L 337,248 L 339,248 L 340,249 L 341,249 L 342,250 L 344,250 L 345,251 L 346,251 L 347,252 L 349,252 L 350,253 L 351,253 L 352,254 L 354,254 L 355,255 L 356,255 L 357,256 L 359,256 L 360,257 L 361,257 L 362,258 L 364,258 L 365,259 L 366,259 L 367,260 L 369,260 L 370,261 L 372,261 L 373,262 L 374,262 L 375,263 L 377,263 L 378,264 L 379,264 L 380,265 L 382,265 L 383,266 L 385,266 L 386,267 L 387,267 L 388,268 L 388,323 L 389,324 L 389,325 L 391,325 L 392,324 L 394,324 L 395,323 L 397,323 L 398,322 L 399,322 L 400,321 L 402,321 L 403,320 L 405,320 L 406,319 L 408,319 L 409,318 L 410,318 L 411,317 L 413,317 L 414,316 L 416,316 L 417,315 L 419,315 L 420,314 L 422,314 L 423,313 L 425,313 L 426,312 L 429,312 L 430,311 L 432,311 L 433,310 L 436,310 L 437,309 L 439,309 L 440,308 L 444,308 L 445,307 L 448,307 L 449,306 L 452,306 L 453,305 L 457,305 L 458,304 L 461,304 L 462,303 L 468,303 L 469,302 L 475,302 L 476,301 L 482,301 L 483,300 L 495,300 L 496,299 L 519,299 L 520,300 L 533,300 L 534,301 L 541,301 L 542,302 L 547,302 L 548,303 L 553,303 L 554,304 L 559,304 L 560,305 L 564,305 L 565,306 L 568,306 L 569,307 L 573,307 L 574,308 L 577,308 L 578,309 L 581,309 L 582,310 L 585,310 L 586,311 L 589,311 L 590,312 L 592,312 L 593,313 L 596,313 L 597,314 L 599,314 L 600,315 L 603,315 L 604,316 L 606,316 L 607,317 L 609,317 L 610,318 L 613,318 L 614,319 L 616,319 L 617,320 L 619,320 L 620,321 L 622,321 L 623,322 L 625,322 L 626,323 L 628,323 L 629,324 L 631,324 L 632,325 L 634,325 L 635,324 L 635,271 L 636,270 L 637,270 L 638,269 L 639,269 L 640,268 L 642,268 L 643,267 L 644,267 L 645,266 L 647,266 L 648,265 L 649,265 L 650,264 L 651,264 L 652,263 L 654,263 L 655,262 L 656,262 L 657,261 L 659,261 L 660,260 L 661,260 L 662,259 L 663,259 L 664,258 L 666,258 L 667,257 L 668,257 L 669,256 L 671,256 L 672,255 L 673,255 L 674,254 L 676,254 L 677,253 L 678,253 L 679,252 L 681,252 L 682,251 L 683,251 L 684,250 L 685,250 L 686,249 L 688,249 L 689,248 L 690,248 L 691,247 L 693,247 L 694,246 L 695,246 L 696,245 L 697,245 L 698,244 L 700,244 L 701,243 L 702,243 L 703,242 L 705,242 L 706,241 L 707,241 L 708,240 L 709,240 L 710,239 L 712,239 L 713,238 L 714,238 L 715,237 L 716,237 L 717,236 L 719,236 L 720,235 L 721,235 L 722,234 L 724,234 L 725,233 L 726,233 L 727,232 L 729,232 L 730,231 L 731,231 L 732,230 L 733,230 L 734,229 L 735,229 L 736,228 L 738,228 L 739,227 L 740,227 L 741,226 L 742,226 L 743,225 L 744,225 L 746,223 L 746,217 L 744,215 L 743,215 L 742,214 L 741,214 L 740,213 L 739,213 L 738,212 L 737,212 L 736,211 L 734,211 L 733,210 L 732,210 L 731,209 L 729,209 L 728,208 L 727,208 L 726,207 L 725,207 L 724,206 L 722,206 L 721,205 L 720,205 L 719,204 L 718,204 L 717,203 L 715,203 L 714,202 L 713,202 L 712,201 L 711,201 L 710,200 L 708,200 L 707,199 L 706,199 L 705,198 L 703,198 L 702,197 L 701,197 L 700,196 L 699,196 L 698,195 L 696,195 L 695,194 L 694,194 L 693,193 L 691,193 L 690,192 L 689,192 L 688,191 L 687,191 L 686,190 L 685,190 L 684,189 L 682,189 L 681,188 L 680,188 L 679,187 L 677,187 L 676,186 L 675,186 L 674,185 L 673,185 L 672,184 L 670,184 L 669,183 L 668,183 L 667,182 L 666,182 L 665,181 L 663,181 L 662,180 L 661,180 L 660,179 L 659,179 L 658,178 L 656,178 L 655,177 L 654,177 L 653,176 L 651,176 L 650,175 L 649,175 L 648,174 L 647,174 L 646,173 L 644,173 L 643,172 L 642,172 L 641,171 L 640,171 L 639,170 L 637,170 L 636,169 L 635,169 L 634,168 L 632,168 L 631,167 L 630,167 L 629,166 L 628,166 L 627,165 L 625,165 L 624,164 L 623,164 L 622,163 L 621,163 L 620,162 L 618,162 L 617,161 L 616,161 L 615,160 L 614,160 L 613,159 L 611,159 L 610,158 L 609,158 L 608,157 L 607,157 L 606,156 L 604,156 L 603,155 L 602,155 L 601,154 L 600,154 L 599,153 L 597,153 L 596,152 L 595,152 L 594,151 L 592,151 L 591,150 L 590,150 L 589,149 L 588,149 L 587,148 L 585,148 L 584,147 L 583,147 L 582,146 L 580,146 L 579,145 L 578,145 L 577,144 L 576,144 L 575,143 L 573,143 L 572,142 L 571,142 L 570,141 L 569,141 L 568,140 L 566,140 L 565,139 L 564,139 L 563,138 L 562,138 L 561,137 L 559,137 L 558,136 L 557,136 L 556,135 L 555,135 L 554,134 L 552,134 L 551,133 L 550,133 L 549,132 L 547,132 L 546,131 L 545,131 L 544,130 L 543,130 L 542,129 L 540,129 L 539,128 L 538,128 L 537,127 L 535,127 L 534,126 L 533,126 L 532,125 L 531,125 L 530,124 L 528,124 L 527,123 L 526,123 L 525,122 L 523,122 L 522,121 L 521,121 L 520,120 L 519,120 L 518,119 L 516,119 L 515,118 L 514,118 L 513,117 Z" fill="blue" /></svg>